<svg width="295" height="85" viewBox="0 0 295 85" fill="none" xmlns="http://www.w3.org/2000/svg">
<path d="M1 75.8275L3.20835 76.5149C5.41671 77.2023 9.83341 78.5772 14.2501 76.7516C18.6668 74.9261 23.0835 69.9001 27.5002 66.3213C31.9169 62.7424 35.9404 43.1873 40.9319 61C45.3486 64.6374 49.5838 77.2922 54.0005 81.3625C58.4172 85.4329 62.8339 84.1669 67.2506 81.7502C71.6673 79.3336 73.4521 70.4429 77.8688 64.133C82.2855 57.8231 89.924 43.844 94.3407 43.1873C98.7574 42.5305 107.001 55.5 107.001 64.133C107.001 74.2276 111.387 79.3794 115.804 72.5C120.221 65.6206 129.084 40.2289 133.501 33.0541C137.918 25.8792 143.832 44.9174 148.249 46.5C152.665 48.0826 155.585 32.2096 160.001 36.0896C164.418 39.9696 171.285 46.7745 175.702 46.5C180.119 46.2255 182.085 38.8715 186.502 32.3931C196.666 43.1873 195.335 16.9988 199.752 16.5691C204.168 16.1394 210.718 62.8786 215.135 66.3213C219.551 69.7639 221.835 29.9099 226.252 23.2616C230.669 16.6132 235.085 4.48759 239.502 3.85411C243.919 3.22064 243.163 27.7098 247.579 32.3931C251.996 37.0763 261.586 21.9537 266.002 19.4113C270.419 16.869 275.108 23.9794 279.525 16.5691C283.941 9.15884 279.812 10.614 282.02 5L294 1" stroke="#adff02" stroke-width="2"/>
</svg>
