<svg width="569" height="462" viewBox="0 0 569 462" fill="none" xmlns="http://www.w3.org/2000/svg">
<g clip-path="url(#clip0_778_553)">
<path fill-rule="evenodd" clip-rule="evenodd" d="M-4.54668 287.971C-1.28751 293.752 1.04781 297.894 -0.828504 300.102C-4.92414 304.921 -16.6788 282.142 -20.4032 259.687C-53.4552 284.695 -61.7547 314.586 -8.57939 334.643C-21.8389 360.483 -15.215 379.929 1.57268 390.419C-1.0987 377.398 3.617 359.221 5.93667 360.454C11.1726 363.237 11.6726 368.434 12.2467 374.401C13.0169 382.407 13.9206 391.801 26.5717 398.614C36.8975 399.712 47.3489 399.117 57.4565 396.857C39.7137 387.78 12.5357 361.354 23.8416 351.051C27.5176 347.702 30.0855 353.111 33.8799 361.105C39.7188 373.405 48.462 391.824 68.6164 393.855C87.6081 387.515 104.726 377.059 118.571 363.34C66.1442 387.113 36.7611 345.145 42.3207 340.471C43.8382 339.195 47.5268 341.566 53.0779 345.133C67.1281 354.162 93.1099 370.858 126.019 355.508C133.479 346.996 139.929 337.752 145.257 327.938C109.979 354.572 60.0091 330.531 63.7923 325.558C64.7323 324.322 68.3714 325.848 73.9223 328.175C89.2531 334.602 119.167 347.143 147.082 324.51C150.311 318.259 155.481 306.88 158.092 299.757C90.7802 324.99 71.653 308.404 84.2169 299.888C88.922 296.698 98.2771 297.636 109.57 298.767C124.778 300.291 143.501 302.167 159.113 294.79C160.805 289.314 162.293 283.594 163.575 277.629C140.813 287.775 104.815 291.512 105.87 280.465C106.246 276.529 111.161 277.199 118.821 278.242C130.088 279.777 147.294 282.121 164.738 271.815C167.413 257.212 168.822 242.43 168.953 227.615C163.944 223.777 158.244 220.805 152.119 218.84C141.336 226.293 136.344 235.166 132.536 241.936C128.204 249.637 125.403 254.616 117.348 251.686C110.509 249.199 126.175 235.135 139.88 222.831C142.072 220.863 144.213 218.94 146.205 217.117C138.448 215.267 130.491 214.252 122.487 214.091C87.3238 234.259 83.8975 252.356 81.8657 263.087C80.8649 268.373 80.2024 271.872 76.2526 272.952C52.3477 279.488 94.9779 228.915 115.607 214.051C88.7039 214.47 57.7725 221.575 30.1631 232.423C20.0203 254.912 21.0551 270.267 21.6576 279.206C21.9752 283.918 22.1726 286.847 20.5497 288.1C16.3949 291.305 12.4703 261.709 21.8406 235.849C9.00298 241.286 -3.23067 247.894 -14.6829 255.577C-15.2629 268.963 -9.03051 280.018 -4.54668 287.971ZM61.1045 284.974C62.2911 285.605 62.1379 287.953 60.7628 290.219L60.7622 290.22C59.3871 292.485 57.3106 293.81 56.1241 293.18C54.9375 292.549 55.0901 290.201 56.4656 287.935C57.8411 285.669 59.918 284.343 61.1045 284.974ZM46.2173 323.929C48.8338 324.834 51.5091 324.164 52.1928 322.431C52.8766 320.698 51.3104 318.559 48.6939 317.653C46.0774 316.747 43.4018 317.417 42.7181 319.15C42.0343 320.883 43.6 323.024 46.2167 323.929L46.2173 323.929ZM23.2857 326.556C23.8366 325.159 26.4044 324.761 29.0208 325.667L29.0202 325.668C31.6355 326.573 33.3118 328.439 32.7606 329.836C32.2095 331.233 29.6415 331.631 27.0252 330.724C24.4088 329.818 22.7348 327.952 23.2857 326.556Z" fill="#ADFF02" fill-opacity="0.5"/>
<mask id="mask0_778_553" style="mask-type:luminance" maskUnits="userSpaceOnUse" x="-47" y="214" width="216" height="186">
<path fill-rule="evenodd" clip-rule="evenodd" d="M-0.828512 300.102C3.62917 294.857 -15.6845 278.693 -14.6829 255.577C-3.23066 247.894 9.00298 241.286 21.8406 235.849C12.4703 261.709 16.3949 291.305 20.5497 288.1C25.2515 284.471 14.674 266.766 30.1631 232.423C57.7725 221.575 88.704 214.47 115.607 214.051C94.9779 228.915 52.3477 279.488 76.2526 272.952C88.2217 269.68 70.0043 244.192 122.487 214.091C130.491 214.252 138.448 215.267 146.205 217.117C131.762 230.339 109.415 248.801 117.348 251.686C132.484 257.192 129.068 234.772 152.119 218.84C158.244 220.805 163.944 223.777 168.953 227.615C168.822 242.43 167.413 257.212 164.738 271.815C135.432 289.129 106.799 270.741 105.87 280.465C104.815 291.512 140.813 287.775 163.575 277.629C162.293 283.594 160.805 289.314 159.113 294.79C131.907 307.645 95.2582 292.403 84.2169 299.888C71.653 308.404 90.7802 324.99 158.092 299.757C155.481 306.88 150.311 318.259 147.082 324.51C109.06 355.338 67.3285 320.909 63.7923 325.558C60.0091 330.531 109.979 354.572 145.257 327.938C139.929 337.752 133.479 346.996 126.019 355.508C80.1078 376.922 47.679 335.966 42.3207 340.471C36.7611 345.145 66.1442 387.113 118.571 363.34C104.726 377.059 87.6081 387.515 68.6164 393.855C35.3651 390.504 33.1743 342.547 23.8416 351.051C12.5357 361.354 39.7137 387.78 57.4565 396.857C47.3489 399.117 36.8975 399.712 26.5717 398.614C4.49034 386.722 18.1969 366.97 5.93667 360.454C3.617 359.221 -1.09869 377.398 1.57268 390.419C-15.215 379.929 -21.8389 360.483 -8.57938 334.643C-61.7547 314.586 -53.4552 284.695 -20.4032 259.687C-16.6788 282.142 -4.92414 304.921 -0.828512 300.102ZM60.7627 290.219C62.1378 287.953 62.291 285.604 61.1044 284.974C59.9179 284.343 57.841 285.668 56.4655 287.935C55.09 290.201 54.9374 292.549 56.124 293.18C57.3106 293.81 59.387 292.485 60.7621 290.219L60.7627 290.219ZM46.2172 323.928C48.8337 324.834 51.509 324.164 52.1928 322.431C52.8765 320.698 51.3103 318.558 48.6938 317.653C46.0773 316.747 43.4017 317.417 42.718 319.15C42.0342 320.883 43.5999 323.023 46.2166 323.929L46.2172 323.928ZM29.0207 325.667C26.4044 324.761 23.8366 325.159 23.2857 326.555C22.7347 327.952 24.4087 329.818 27.0251 330.724C29.6415 331.63 32.2094 331.232 32.7606 329.836C33.3117 328.439 31.6354 326.573 29.0202 325.668L29.0207 325.667Z" fill="white"/>
</mask>
<g mask="url(#mask0_778_553)">
<path d="M46.0649 427.214C124.56 386.956 118.218 332.316 36.366 340.208C-45.486 348.099 53.135 310.895 74.35 295.123C74.35 295.123 -40.7182 341.839 31.3354 271.03C103.389 200.222 -11.6443 225.727 -11.6443 225.727C-11.6443 225.727 -107.012 330.769 -109.921 337.705C-112.83 344.641 23.7895 419.02 23.7895 419.02" fill="#ADFF02" fill-opacity="0.01"/>
<path d="M-104.576 370.987L-49.7775 346.227C-49.7775 346.227 58.1982 325.758 165.734 230.093V230.093L189.935 202.562L105.583 133.057L0.630497 181.566L-68.9359 276.486L-97.397 324.739" fill="#ADFF02" fill-opacity="0.5"/>
<path d="M-104.576 370.987L-49.7775 346.227C-49.7775 346.227 58.1982 325.758 165.734 230.093V230.093L189.935 202.562L105.583 133.057L0.630497 181.566L-68.9359 276.486L-97.397 324.739" stroke="black" stroke-width="1.94405" stroke-linecap="round" stroke-linejoin="round"/>
<path d="M11.0705 241.761C100.108 251.269 128.653 203.28 56.8537 165.559C-14.9453 127.838 88.6614 150.695 115.745 149.277C115.745 149.277 -7.18135 125.306 95.4481 106.419C198.077 87.5324 88.2734 46.279 88.2734 46.279C88.2734 46.279 -54.5528 80.5109 -61.2128 84.5989C-67.8727 88.6869 -2.0837 223.06 -2.0837 223.06" fill="#ADFF02" fill-opacity="0.01"/>
</g>
<path d="M-0.828512 300.102L-1.59517 299.519L-1.59515 299.519L-0.828512 300.102ZM-14.6829 255.577L-15.6776 255.565C-15.6646 255.264 -15.5023 254.983 -15.2403 254.807L-14.6829 255.577ZM21.8406 235.849L21.4584 234.984C21.8208 234.831 22.2379 234.892 22.5235 235.14C22.8091 235.389 22.9098 235.778 22.7807 236.134L21.8406 235.849ZM20.5497 288.1L21.1628 288.829L21.1627 288.829L20.5497 288.1ZM30.1631 232.423L29.2501 232.07C29.3566 231.834 29.5571 231.646 29.8065 231.548L30.1631 232.423ZM115.607 214.051L115.62 213.103C116.049 213.096 116.426 213.352 116.556 213.737C116.686 214.122 116.54 214.551 116.193 214.8L115.607 214.051ZM76.2526 272.952L76.0039 272.042L76.0039 272.042L76.2526 272.952ZM122.487 214.091L121.992 213.283C122.158 213.188 122.347 213.14 122.538 213.143L122.487 214.091ZM146.205 217.117L146.473 216.197C146.82 216.28 147.087 216.536 147.172 216.866C147.257 217.197 147.147 217.55 146.884 217.791L146.205 217.117ZM117.348 251.686L117.726 250.799L117.727 250.799L117.348 251.686ZM152.119 218.84L151.55 218.078C151.817 217.894 152.157 217.843 152.462 217.941L152.119 218.84ZM168.953 227.615L169.591 226.87C169.82 227.045 169.951 227.311 169.949 227.595L168.953 227.615ZM164.738 271.815L165.719 271.951C165.669 272.225 165.496 272.468 165.245 272.616L164.738 271.815ZM105.87 280.465L104.879 280.407L104.879 280.407L105.87 280.465ZM163.575 277.629L163.175 276.773C163.516 276.621 163.912 276.66 164.201 276.875C164.491 277.09 164.625 277.444 164.55 277.793L163.575 277.629ZM159.113 294.79L160.068 295.033C159.987 295.295 159.793 295.515 159.535 295.637L159.113 294.79ZM84.2169 299.888L84.7784 300.655L84.7783 300.655L84.2169 299.888ZM158.092 299.757L157.751 298.877C158.113 298.741 158.519 298.814 158.793 299.064C159.066 299.315 159.159 299.697 159.031 300.046L158.092 299.757ZM147.082 324.51L147.973 324.908C147.911 325.029 147.823 325.136 147.715 325.224L147.082 324.51ZM63.7923 325.558L64.5927 326.099L64.5926 326.099L63.7923 325.558ZM145.257 327.938L144.653 327.202C145.024 326.921 145.542 326.919 145.899 327.196C146.256 327.472 146.356 327.954 146.139 328.353L145.257 327.938ZM126.019 355.508L126.776 356.103C126.682 356.209 126.566 356.296 126.436 356.357L126.019 355.508ZM42.3207 340.471L42.9673 341.174L42.9673 341.174L42.3207 340.471ZM118.571 363.34L118.165 362.487C118.602 362.288 119.117 362.411 119.389 362.778C119.662 363.145 119.616 363.653 119.279 363.987L118.571 363.34ZM68.6164 393.855L68.9211 394.749C68.7798 394.796 68.6302 394.813 68.4831 394.798L68.6164 393.855ZM23.8416 351.051L24.5189 351.727L24.5189 351.727L23.8416 351.051ZM57.4565 396.857L57.9473 396.019C58.3082 396.203 58.5045 396.585 58.4399 396.977C58.3753 397.369 58.0635 397.688 57.6572 397.779L57.4565 396.857ZM26.5717 398.614L26.4328 399.556C26.302 399.542 26.1762 399.504 26.0626 399.442L26.5717 398.614ZM1.57268 390.419L2.54997 390.211C2.62697 390.587 2.45665 390.976 2.11888 391.196C1.7811 391.417 1.34286 391.424 1.00967 391.216L1.57268 390.419ZM-8.57938 334.643L-8.18963 333.76C-7.93749 333.855 -7.74072 334.046 -7.64567 334.288C-7.55062 334.53 -7.56569 334.802 -7.68733 335.039L-8.57938 334.643ZM-20.4032 259.687L-21.0084 258.951C-20.7297 258.74 -20.3592 258.682 -20.0332 258.797C-19.7073 258.912 -19.4742 259.184 -19.4197 259.512L-20.4032 259.687ZM60.7628 290.219L59.9044 289.763L60.7628 290.219ZM60.7622 290.22L61.6206 290.676L60.7622 290.22ZM46.2173 323.929L45.3589 323.472C45.6071 323.064 46.1255 322.879 46.5814 323.037L46.2173 323.929ZM46.2167 323.929L47.0751 324.386C46.8269 324.794 46.3085 324.979 45.8526 324.821L46.2167 323.929ZM29.0208 325.667L29.3849 324.775C29.6559 324.869 29.8667 325.072 29.9618 325.332C30.0568 325.591 30.0266 325.88 29.8791 326.123L29.0208 325.667ZM29.0202 325.668L28.6562 326.56C28.3852 326.466 28.1743 326.263 28.0793 326.004C27.9842 325.744 28.0144 325.455 28.1619 325.212L29.0202 325.668ZM-1.59515 299.519C-1.25913 299.123 -1.09264 298.578 -1.17608 297.748C-1.26132 296.901 -1.60058 295.852 -2.17136 294.575C-3.3204 292.004 -5.24009 288.85 -7.34568 284.998C-11.5077 277.382 -16.1895 267.381 -15.6776 255.565L-13.6882 255.588C-14.1779 266.889 -9.70363 276.528 -5.57368 284.084C-3.53326 287.818 -1.52295 291.133 -0.335694 293.79C0.261667 295.127 0.692131 296.382 0.805966 297.513C0.9216 298.662 0.716528 299.769 -0.0618702 300.685L-1.59515 299.519ZM-15.2403 254.807C-3.73262 247.087 8.55973 240.447 21.4584 234.984L22.2228 236.713C9.44623 242.124 -2.72871 248.701 -14.1256 256.347L-15.2403 254.807ZM22.7807 236.134C18.1441 248.931 16.7919 262.675 17.1183 272.817C17.2817 277.895 17.8641 282.017 18.6398 284.643C19.035 285.981 19.4486 286.817 19.7987 287.214C19.9702 287.409 20.0434 287.404 19.9932 287.394C19.8952 287.376 19.8565 287.432 19.9367 287.37L21.1627 288.829C20.7236 289.168 20.1673 289.368 19.5599 289.256C19.0004 289.153 18.5724 288.815 18.2572 288.457C17.634 287.749 17.1326 286.596 16.7219 285.206C15.886 282.376 15.294 278.085 15.1282 272.931C14.7961 262.611 16.1668 248.627 20.9005 235.563L22.7807 236.134ZM19.9366 287.37C20.2692 287.113 20.5373 286.686 20.7019 285.912C20.8687 285.127 20.9059 284.095 20.8622 282.756C20.8186 281.422 20.699 279.865 20.58 278.03C20.4617 276.205 20.3462 274.135 20.3157 271.819C20.1938 262.535 21.4408 249.386 29.2501 232.07L31.0761 232.775C23.3963 249.803 22.1876 262.679 22.3066 271.74C22.3365 274.01 22.4498 276.046 22.5673 277.858C22.6841 279.659 22.8074 281.269 22.8523 282.642C22.897 284.009 22.8681 285.224 22.653 286.236C22.4355 287.259 22.0056 288.179 21.1628 288.829L19.9366 287.37ZM29.8065 231.548C57.5051 220.666 88.5632 213.525 115.62 213.103L115.594 214.998C88.8447 215.416 58.0398 222.485 30.5197 233.298L29.8065 231.548ZM116.193 214.8C105.989 222.153 90.2442 238.429 80.0344 252.062C77.487 255.463 75.2961 258.685 73.6274 261.548C71.9509 264.425 70.8338 266.886 70.3869 268.779C69.9254 270.733 70.2523 271.711 70.8527 272.148C71.1795 272.385 71.7118 272.57 72.5733 272.583C73.4361 272.596 74.5655 272.435 76.0039 272.042L76.5014 273.863C74.9517 274.287 73.6128 274.496 72.4838 274.479C71.3536 274.462 70.3707 274.216 69.6157 273.667C68.0525 272.531 67.9492 270.514 68.4449 268.415C68.9553 266.253 70.183 263.6 71.893 260.666C73.6108 257.718 75.8481 254.432 78.4247 250.991C88.7111 237.256 104.596 220.812 115.021 213.301L116.193 214.8ZM76.0039 272.042C77.2667 271.696 78.0868 271.082 78.7002 270.208C79.3423 269.293 79.7848 268.054 80.1755 266.423C80.9332 263.26 81.467 258.625 83.2289 253.321C86.8187 242.513 95.5717 228.436 121.992 213.283L122.983 214.899C96.9201 229.847 88.5402 243.564 85.1257 253.844C83.3854 259.083 82.9491 263.316 82.1162 266.793C81.7116 268.481 81.2036 270.006 80.346 271.229C79.4597 272.492 78.2309 273.39 76.5014 273.863L76.0039 272.042ZM122.538 213.143C130.615 213.306 138.645 214.331 146.473 216.197L145.937 218.037C138.251 216.204 130.366 215.198 122.437 215.039L122.538 213.143ZM146.884 217.791C139.624 224.438 130.481 232.309 124.109 238.908C120.913 242.219 118.504 245.12 117.371 247.323C116.799 248.436 116.626 249.231 116.704 249.755C116.766 250.177 117.006 250.537 117.726 250.799L116.969 252.572C115.707 252.113 114.909 251.265 114.732 250.074C114.57 248.984 114.954 247.761 115.588 246.53C116.864 244.048 119.458 240.966 122.662 237.648C129.091 230.989 138.343 223.019 145.526 216.443L146.884 217.791ZM117.727 250.799C119.527 251.454 120.976 251.665 122.184 251.564C123.375 251.465 124.392 251.056 125.336 250.37C127.295 248.945 128.909 246.367 130.893 242.871C134.8 235.984 139.806 226.195 151.55 218.078L152.689 219.601C141.381 227.417 136.57 236.803 132.638 243.734C130.703 247.145 128.892 250.135 126.514 251.864C125.29 252.754 123.91 253.318 122.301 253.453C120.708 253.586 118.953 253.294 116.969 252.572L117.727 250.799ZM152.462 217.941C158.693 219.94 164.494 222.964 169.591 226.87L168.315 228.36C163.394 224.589 157.794 221.67 151.777 219.739L152.462 217.941ZM169.949 227.595C169.817 242.463 168.403 257.296 165.719 271.951L163.758 271.679C166.423 257.127 167.827 242.398 167.958 227.635L169.949 227.595ZM165.245 272.616C150.3 281.446 135.539 281.154 124.519 279.928C121.77 279.622 119.236 279.255 117.011 278.959C114.77 278.66 112.857 278.435 111.283 278.393C109.681 278.351 108.591 278.508 107.904 278.849C107.583 279.009 107.359 279.205 107.2 279.445C107.037 279.691 106.909 280.032 106.862 280.524L104.879 280.407C104.948 279.682 105.152 279.028 105.525 278.466C105.902 277.899 106.417 277.476 107.024 277.174C108.196 276.592 109.724 276.454 111.395 276.498C113.094 276.543 115.109 276.783 117.344 277.081C119.596 277.381 122.087 277.742 124.807 278.045C135.662 279.253 149.87 279.498 164.231 271.014L165.245 272.616ZM106.862 280.523C106.756 281.629 107.103 282.52 107.846 283.27C108.618 284.048 109.854 284.705 111.557 285.202C114.968 286.197 119.937 286.457 125.747 286.049C137.344 285.236 151.913 281.793 163.175 276.773L163.976 278.486C152.476 283.612 137.664 287.11 125.836 287.94C119.933 288.354 114.678 288.111 110.924 287.016C109.046 286.469 107.464 285.685 106.38 284.593C105.268 283.472 104.721 282.063 104.879 280.407L106.862 280.523ZM164.55 277.793C163.262 283.782 161.768 289.529 160.068 295.033L158.159 294.547C159.842 289.099 161.323 283.405 162.6 277.465L164.55 277.793ZM159.535 295.637C145.646 302.199 129.419 301.564 115.48 300.296C108.456 299.658 102.062 298.863 96.6888 298.689C91.2681 298.513 87.2291 298.993 84.7784 300.655L83.6554 299.121C86.7252 297.04 91.4079 296.619 96.8145 296.794C102.268 296.971 108.807 297.78 115.726 298.409C129.674 299.677 145.374 300.236 158.692 293.944L159.535 295.637ZM84.7783 300.655C81.8386 302.647 81.0969 304.834 81.9084 306.609C82.7897 308.537 85.6883 310.534 91.4105 311.546C102.762 313.555 124.157 311.47 157.751 298.877L158.434 300.638C124.715 313.278 102.891 315.516 90.9918 313.411C85.0886 312.366 81.354 310.197 80.0791 307.408C78.7343 304.466 80.3131 301.386 83.6554 299.121L84.7783 300.655ZM159.031 300.046C156.404 307.214 151.216 318.63 147.973 324.908L146.191 324.111C149.406 317.889 154.559 306.547 157.154 299.469L159.031 300.046ZM147.715 325.224C128.349 340.926 108.017 339.985 92.2105 335.764C84.3194 333.657 77.5204 330.725 72.5289 328.638C70.0107 327.585 68.0025 326.769 66.5199 326.352C65.7739 326.143 65.2412 326.059 64.8857 326.066C64.5356 326.074 64.5465 326.16 64.5927 326.099L62.9919 325.016C63.4801 324.375 64.2314 324.185 64.8997 324.171C65.5625 324.157 66.3261 324.306 67.1339 324.532C68.7589 324.989 70.8882 325.859 73.3737 326.898C78.3896 328.996 85.0628 331.872 92.7995 333.938C108.248 338.062 127.794 338.922 146.45 323.795L147.715 325.224ZM64.5926 326.099C64.5895 326.103 64.5871 326.104 64.5856 326.123C64.5834 326.15 64.5854 326.224 64.6344 326.354C64.7372 326.627 64.9975 327.02 65.4925 327.519C66.4727 328.506 68.16 329.697 70.4738 330.945C75.0835 333.431 81.9827 336.039 90.1095 337.673C106.377 340.943 127.34 340.272 144.653 327.202L145.861 328.674C127.896 342.238 106.236 342.864 89.6441 339.528C81.3415 337.859 74.2526 335.189 69.4546 332.601C67.0644 331.312 65.1928 330.017 64.0267 328.842C63.4484 328.259 62.9886 327.652 62.7579 327.039C62.5186 326.404 62.4991 325.664 62.9919 325.016L64.5926 326.099ZM146.139 328.353C140.776 338.232 134.284 347.536 126.776 356.103L125.262 354.913C132.674 346.457 139.082 337.273 144.375 327.522L146.139 328.353ZM126.436 356.357C103.096 367.244 83.1677 362.255 68.4924 355.179C61.1699 351.648 55.1215 347.581 50.633 344.724C48.3668 343.282 46.5445 342.178 45.1376 341.566C44.4329 341.26 43.9029 341.11 43.52 341.077C43.1568 341.045 43.0264 341.124 42.9673 341.174L41.6742 339.768C42.2848 339.255 43.0357 339.126 43.7586 339.189C44.4618 339.25 45.2229 339.497 46.0074 339.838C47.5788 340.52 49.5278 341.71 51.7726 343.139C56.3063 346.025 62.2392 350.014 69.4327 353.482C83.7891 360.405 103.031 365.187 125.602 354.659L126.436 356.357ZM42.9673 341.174C42.8624 341.262 42.728 341.45 42.6718 341.856C42.6151 342.265 42.6502 342.825 42.8211 343.533C43.1624 344.947 44.0022 346.78 45.3636 348.837C48.0794 352.943 52.7693 357.79 59.2574 361.772C72.1919 369.711 92.2816 374.223 118.165 362.487L118.978 364.194C92.4336 376.23 71.6183 371.644 58.1445 363.374C51.4284 359.252 46.5383 354.216 43.6701 349.881C42.2394 347.718 41.2862 345.691 40.88 344.008C40.6771 343.168 40.5999 342.37 40.698 341.662C40.7965 340.951 41.0841 340.265 41.6742 339.768L42.9673 341.174ZM119.279 363.987C105.32 377.818 88.0632 388.359 68.9211 394.749L68.3116 392.961C87.153 386.672 104.132 376.299 117.863 362.694L119.279 363.987ZM68.4831 394.798C51.3064 393.067 42.2442 379.81 36.364 368.446C34.8876 365.593 33.5985 362.832 32.4338 360.386C31.2623 357.926 30.2247 355.804 29.2336 354.173C28.2176 352.501 27.3525 351.527 26.6019 351.155C26.2673 350.99 25.985 350.959 25.7087 351.018C25.4107 351.082 25.0165 351.273 24.5189 351.727L23.1643 350.376C23.8333 349.766 24.5499 349.336 25.3256 349.169C26.1229 348.998 26.8771 349.129 27.5605 349.468C28.846 350.104 29.943 351.507 30.9643 353.188C32.0105 354.909 33.0856 357.114 34.2512 359.562C35.4236 362.023 36.6961 364.749 38.1551 367.569C44.0162 378.895 52.675 391.292 68.7496 392.912L68.4831 394.798ZM24.5189 351.727C22.0766 353.953 21.6055 357.103 22.7862 360.991C23.9704 364.891 26.774 369.334 30.5397 373.808C38.0649 382.749 49.1977 391.543 57.9473 396.019L56.9657 397.695C47.9725 393.094 36.6449 384.136 28.9719 375.02C25.1385 370.465 22.1585 365.802 20.8722 361.566C19.5823 357.318 19.9537 353.301 23.1643 350.376L24.5189 351.727ZM57.6572 397.779C47.4366 400.065 36.8704 400.666 26.4328 399.556L26.7106 397.672C36.9247 398.758 47.2611 398.17 57.2558 395.934L57.6572 397.779ZM26.0626 399.442C20.3956 396.39 16.9764 392.804 14.8728 389.013C12.7773 385.236 12.02 381.313 11.5821 377.652C11.136 373.924 11.0253 370.625 10.2624 367.751C9.52149 364.96 8.20034 362.756 5.43234 361.285L6.441 359.623C9.80312 361.41 11.3662 364.119 12.1936 367.236C12.999 370.27 13.1404 373.873 13.5604 377.384C13.9886 380.962 14.7112 384.614 16.6392 388.089C18.5591 391.549 21.7071 394.892 27.0808 397.786L26.0626 399.442ZM5.43234 361.285C5.58246 361.365 5.7599 361.351 5.85962 361.308C5.90884 361.287 5.8634 361.293 5.73836 361.439C5.49323 361.726 5.17543 362.275 4.82374 363.114C4.13194 364.765 3.42353 367.259 2.86274 370.232C1.74066 376.182 1.24581 383.854 2.54997 390.211L0.595399 390.627C-0.771823 383.962 -0.244508 376.036 0.903323 369.95C1.4775 366.906 2.21598 364.273 2.9773 362.456C3.35218 361.561 3.76249 360.791 4.20881 360.268C4.4295 360.01 4.72062 359.739 5.09247 359.581C5.5148 359.401 6.00092 359.389 6.441 359.623L5.43234 361.285ZM1.00967 391.216C-7.5697 385.855 -13.5893 378.177 -15.7451 368.51C-17.8991 358.852 -16.1745 347.31 -9.47144 334.247L-7.68733 335.039C-14.2437 347.816 -15.837 358.917 -13.797 368.065C-11.7589 377.203 -6.07266 384.493 2.1357 389.622L1.00967 391.216ZM-8.96914 335.526C-35.6531 325.461 -47.3616 312.763 -47.8215 299.079C-48.2784 285.488 -37.5875 271.495 -21.0084 258.951L-19.7979 260.422C-36.2708 272.886 -46.2557 286.343 -45.8315 298.964C-45.4104 311.492 -34.681 323.768 -8.18963 333.76L-8.96914 335.526ZM-19.4197 259.512C-17.5721 270.652 -13.7298 281.877 -9.85251 289.698C-7.90742 293.621 -5.98642 296.62 -4.34746 298.327C-3.51449 299.195 -2.84865 299.628 -2.38183 299.761C-2.16938 299.822 -2.03686 299.809 -1.95263 299.784C-1.86987 299.76 -1.74747 299.698 -1.59517 299.519L-0.0618577 300.685C-0.421504 301.108 -0.870894 301.433 -1.4121 301.593C-1.95184 301.753 -2.49546 301.724 -3.00367 301.579C-3.97815 301.301 -4.93168 300.569 -5.83486 299.629C-7.66817 297.719 -9.68655 294.523 -11.6576 290.547C-15.6126 282.57 -19.5099 271.177 -21.3866 259.861L-19.4197 259.512ZM59.9044 289.763C60.5297 288.732 60.8504 287.723 60.9007 286.952C60.9548 286.121 60.6994 285.858 60.6002 285.805L61.6089 284.143C62.6963 284.721 62.9575 285.947 62.8879 287.014C62.8144 288.141 62.371 289.439 61.6211 290.675L59.9044 289.763ZM60.6002 285.805C60.5009 285.752 60.1282 285.682 59.3934 286.151C58.7111 286.586 57.9494 287.361 57.3239 288.391L55.6073 287.479C56.3573 286.243 57.3217 285.222 58.3184 284.585C59.2626 283.983 60.5216 283.565 61.6089 284.143L60.6002 285.805ZM57.3239 288.391C56.6985 289.422 56.3779 290.43 56.3277 291.202C56.2736 292.033 56.5291 292.296 56.6284 292.349L55.6198 294.011C54.5325 293.433 54.271 292.207 54.3404 291.14C54.4138 290.013 54.8572 288.715 55.6073 287.479L57.3239 288.391ZM56.6284 292.349C56.7278 292.402 57.1004 292.472 57.835 292.003C58.5171 291.568 59.2787 290.794 59.9039 289.763L61.6206 290.676C60.8707 291.911 59.9065 292.932 58.9099 293.568C57.9659 294.171 56.707 294.589 55.6198 294.011L56.6284 292.349ZM59.9039 289.763L59.9044 289.763L61.6211 290.675L61.6206 290.676L59.9039 289.763ZM46.5814 323.037C47.7272 323.433 48.8436 323.468 49.7029 323.253C50.5664 323.037 51.0714 322.604 51.2621 322.12L53.1236 322.741C52.6306 323.991 51.456 324.76 50.1568 325.086C48.8534 325.412 47.3239 325.33 45.8532 324.821L46.5814 323.037ZM51.2621 322.12C51.4544 321.633 51.3701 320.987 50.8589 320.289C50.3515 319.596 49.4753 318.941 48.3298 318.545L49.058 316.761C50.529 317.27 51.7441 318.138 52.503 319.174C53.2581 320.205 53.615 321.496 53.1236 322.741L51.2621 322.12ZM48.3298 318.545C47.184 318.148 46.0675 318.113 45.2081 318.328C44.3445 318.544 43.8395 318.977 43.6488 319.461L41.7874 318.84C42.2804 317.59 43.455 316.821 44.7543 316.496C46.0577 316.169 47.5873 316.252 49.058 316.761L48.3298 318.545ZM43.6488 319.461C43.4565 319.948 43.5407 320.594 44.0519 321.293C44.5592 321.986 45.4353 322.641 46.5808 323.037L45.8526 324.821C44.3814 324.312 43.1663 323.444 42.4075 322.407C41.6526 321.376 41.2959 320.085 41.7874 318.84L43.6488 319.461ZM45.3584 323.473L45.3589 323.472L47.0756 324.385L47.0751 324.386L45.3584 323.473ZM28.6566 326.559C27.4745 326.15 26.35 326.053 25.5105 326.183C24.6326 326.319 24.303 326.647 24.2164 326.866L22.355 326.245C22.8194 325.068 24.0491 324.498 25.2469 324.312C26.4831 324.121 27.9507 324.279 29.3849 324.775L28.6566 326.559ZM24.2164 326.866C24.1273 327.092 24.1553 327.553 24.7326 328.196C25.2836 328.811 26.2075 329.423 27.3893 329.833L26.661 331.616C25.2264 331.12 24.0051 330.346 23.2028 329.452C22.4267 328.587 21.8932 327.416 22.355 326.245L24.2164 326.866ZM27.3893 329.833C28.5714 330.242 29.6959 330.338 30.5355 330.208C31.4135 330.072 31.7434 329.745 31.8299 329.525L33.6913 330.147C33.2267 331.324 31.997 331.894 30.7992 332.079C29.5629 332.271 28.0953 332.113 26.661 331.616L27.3893 329.833ZM31.8299 329.525C31.9189 329.3 31.8911 328.84 31.3132 328.196C30.7617 327.582 29.8374 326.969 28.6562 326.56L29.3842 324.776C30.8183 325.272 32.0398 326.046 32.8425 326.94C33.6188 327.805 34.1535 328.975 33.6913 330.147L31.8299 329.525ZM28.1619 325.212L28.1624 325.211L29.8791 326.123L29.8786 326.124L28.1619 325.212Z" fill="black"/>
<path d="M42.1929 264.217C41.7235 261.414 42.0755 258.545 43.2115 255.914" stroke="black" stroke-width="1.94405" stroke-linecap="round" stroke-linejoin="round"/>
<path d="M149.905 265.815C147.057 267.214 143.882 267.928 140.666 267.895" stroke="black" stroke-width="1.94405" stroke-linecap="round" stroke-linejoin="round"/>
<path d="M94.2931 346.798C91.3517 346.647 88.5089 345.753 86.0661 344.213" stroke="black" stroke-width="1.94405" stroke-linecap="round" stroke-linejoin="round"/>
<path fill-rule="evenodd" clip-rule="evenodd" d="M537.296 215.386C541.86 210.438 545.13 206.893 548.011 207.722C554.3 209.534 535.92 228.082 514.933 239.516C551.871 259.196 584.641 255.527 585.208 201.88C615.756 204.011 632.69 191.148 637.007 172.695C625.023 179.771 605.218 182.29 605.598 179.82C606.458 174.243 611.447 171.912 617.176 169.236C624.861 165.645 633.879 161.432 636.045 147.924C633.372 138.527 628.969 129.637 623.034 121.655C620.472 140.424 604.087 173.742 589.713 167.647C585.039 165.666 589.485 161.456 596.056 155.235C606.166 145.662 621.306 131.327 615.977 113.025C602.743 98.7893 586.096 87.6868 567.397 80.626C610.17 117.638 579.124 158.544 572.446 155.404C570.623 154.547 571.637 150.469 573.162 144.331C577.023 128.797 584.162 100.07 556.887 76.9926C545.697 73.5966 534.146 71.3472 522.438 70.2838C561.805 91.3097 556.104 143.617 549.776 142.134C548.204 141.766 548.395 138.038 548.686 132.353C549.491 116.651 551.062 86.0132 518.361 69.9436C510.964 69.4091 497.756 69.0542 489.716 69.3763C539.37 118.826 529.841 141.54 516.785 133.698C511.896 130.762 509.417 122.269 506.425 112.016C502.395 98.2093 497.435 81.2119 484.401 70.298C478.335 70.8207 472.1 71.6108 465.698 72.6682C484.094 88.8015 500.939 118.805 489.562 121.914C485.509 123.022 484.383 118.495 482.628 111.44C480.047 101.064 476.105 85.2166 459.488 73.7751C443.982 76.7698 428.759 80.9319 413.969 86.2206C411.977 91.9848 411.098 98.0354 411.376 104.088C422.725 110.766 433.374 111.88 441.499 112.729C450.742 113.696 456.718 114.32 456.739 122.408C456.759 129.274 437.051 120.752 419.811 113.297C417.053 112.105 414.359 110.94 411.819 109.87C412.807 117.303 414.698 124.607 417.456 131.639C450.347 154.923 469.604 151.31 481.024 149.167C486.649 148.111 490.372 147.412 492.887 150.46C508.108 168.906 442.238 150.203 419.925 137.649C430.153 160.937 448.503 185.297 469.365 205.399C495.442 206.035 510.343 199.534 519.018 195.75C523.591 193.755 526.434 192.514 528.272 193.472C532.977 195.923 504.958 210.135 475.808 211.401C485.9 220.604 496.937 228.854 508.758 236.031C522.29 231.655 531.017 222.193 537.296 215.386ZM510.373 159.275C510.568 158.011 512.961 157.289 515.717 157.661L515.718 157.661C518.474 158.033 520.55 159.359 520.355 160.623C520.16 161.886 517.768 162.61 515.011 162.238C512.254 161.865 510.178 160.539 510.373 159.275ZM554.564 158.042C554.512 155.431 552.869 153.345 550.895 153.381C548.921 153.417 547.364 155.562 547.416 158.172C547.469 160.782 549.112 162.869 551.086 162.833C553.059 162.797 554.618 160.652 554.565 158.042L554.564 158.042ZM565.541 177.065C563.95 177.094 562.618 175.001 562.565 172.391L562.566 172.392C562.513 169.783 563.759 167.642 565.35 167.613C566.94 167.584 568.273 169.676 568.325 172.286C568.378 174.896 567.131 177.035 565.541 177.065Z" fill="#ADFF02" fill-opacity="0.5"/>
<mask id="mask1_778_553" style="mask-type:luminance" maskUnits="userSpaceOnUse" x="411" y="69" width="227" height="182">
<path fill-rule="evenodd" clip-rule="evenodd" d="M548.011 207.722C541.166 205.751 532.125 228.474 508.758 236.031C496.937 228.854 485.9 220.604 475.808 211.401C504.958 210.135 532.977 195.923 528.272 193.472C522.947 190.698 509.187 206.371 469.365 205.399C448.503 185.297 430.153 160.937 419.925 137.649C442.238 150.203 508.108 168.906 492.887 150.46C485.266 141.224 466.547 166.392 417.456 131.639C414.698 124.607 412.807 117.303 411.819 109.87C430.242 117.633 456.762 130.372 456.739 122.408C456.699 107.211 435.635 118.364 411.376 104.088C411.098 98.0354 411.977 91.9848 413.969 86.2206C428.759 80.9319 443.982 76.7698 459.488 73.7751C487.403 92.9965 479.547 124.651 489.562 121.914C500.939 118.805 484.094 88.8015 465.698 72.6682C472.1 71.6108 478.335 70.8207 484.401 70.298C507.113 89.3161 505.311 126.807 516.785 133.698C529.841 141.54 539.37 118.826 489.716 69.3763C497.756 69.0542 510.964 69.4091 518.361 69.9436C562.902 91.8316 543.861 140.748 549.776 142.134C556.104 143.617 561.805 91.3097 522.438 70.2838C534.146 71.3472 545.697 73.5966 556.887 76.9926C594.938 109.187 566.009 152.378 572.446 155.404C579.124 158.544 610.17 117.638 567.397 80.626C586.096 87.6868 602.743 98.7893 615.977 113.025C624.769 143.22 577.847 162.617 589.713 167.647C604.087 173.742 620.472 140.424 623.034 121.655C628.969 129.637 633.372 138.527 636.045 147.924C632.264 171.501 607.611 166.761 605.598 179.82C605.218 182.29 625.023 179.771 637.007 172.695C632.69 191.148 615.756 204.011 585.208 201.88C584.641 255.527 551.871 259.196 514.933 239.516C535.92 228.082 554.3 209.534 548.011 207.722ZM515.717 157.661C512.961 157.289 510.568 158.012 510.373 159.275C510.178 160.539 512.254 161.866 515.011 162.238C517.768 162.61 520.16 161.886 520.355 160.623C520.549 159.359 518.474 158.033 515.718 157.661L515.717 157.661ZM554.564 158.042C554.512 155.432 552.869 153.345 550.895 153.381C548.921 153.417 547.363 155.562 547.416 158.172C547.469 160.783 549.112 162.869 551.086 162.833C553.059 162.797 554.618 160.652 554.565 158.042L554.564 158.042ZM562.565 172.391C562.618 175.002 563.95 177.094 565.54 177.065C567.131 177.035 568.378 174.896 568.325 172.286C568.273 169.676 566.94 167.584 565.35 167.613C563.759 167.642 562.513 169.783 562.566 172.392L562.565 172.391Z" fill="white"/>
</mask>
<g mask="url(#mask1_778_553)">
<path d="M657.395 120.51C588.712 66.7958 536.655 92.2469 574.356 160.689C612.056 229.131 539.072 156.767 515.642 144.033C515.642 144.033 604.088 227.259 507.354 190.299C410.62 153.338 477.947 244.268 477.947 244.268C477.947 244.268 617.247 289.06 625.21 289.065C633.173 289.07 657.365 142.907 657.365 142.907" fill="#ADFF02" fill-opacity="0.01"/>
<path d="M656.379 272.271L611.758 233.553C611.758 233.553 552.015 146.935 417.609 88.1215V88.1215L381.389 77.0746L342.987 175.918L429.528 249.677L549.348 275.678L607.742 282.881" fill="#ADFF02" fill-opacity="0.5"/>
<path d="M656.379 272.271L611.758 233.553C611.758 233.553 552.015 146.935 417.609 88.1215V88.1215L381.389 77.0746L342.987 175.918L429.528 249.677L549.348 275.678L607.742 282.881" stroke="black" stroke-width="1.94405" stroke-linecap="round" stroke-linejoin="round"/>
<path d="M485.619 218.629C462.612 137.581 404.45 130.21 393.098 206.525C381.746 282.84 366.709 184.23 355.421 161.149C355.421 161.149 376.394 276.999 320.176 194.463C263.958 111.926 262.949 222.645 262.949 222.645C262.949 222.645 349.095 334.61 355.592 338.922C362.088 343.234 471.808 236.91 471.808 236.91" fill="#ADFF02" fill-opacity="0.01"/>
</g>
<path d="M548.011 207.722L547.724 208.654L547.724 208.654L548.011 207.722ZM508.758 236.031L509.044 236.952C508.773 237.04 508.479 237.006 508.239 236.861L508.758 236.031ZM475.808 211.401L475.143 212.121C474.854 211.857 474.757 211.443 474.897 211.073C475.038 210.703 475.388 210.45 475.783 210.432L475.808 211.401ZM528.272 193.472L528.736 192.611L528.736 192.611L528.272 193.472ZM469.365 205.399L469.323 206.368C469.081 206.362 468.852 206.267 468.68 206.101L469.365 205.399ZM419.925 137.649L419.031 138.05C418.863 137.669 418.963 137.219 419.278 136.935C419.593 136.651 420.053 136.598 420.416 136.803L419.925 137.649ZM492.887 150.46L492.129 151.083L492.129 151.083L492.887 150.46ZM417.456 131.639L416.882 132.432C416.731 132.325 416.615 132.177 416.548 132.005L417.456 131.639ZM411.819 109.87L410.852 110.014C410.806 109.667 410.952 109.32 411.234 109.104C411.516 108.889 411.89 108.84 412.212 108.976L411.819 109.87ZM456.739 122.408L455.765 122.428L455.765 122.428L456.739 122.408ZM411.376 104.088L410.869 104.925C410.592 104.762 410.417 104.471 410.402 104.15L411.376 104.088ZM413.969 86.2206L413.048 85.9202C413.146 85.6362 413.37 85.4106 413.654 85.309L413.969 86.2206ZM459.488 73.7751L459.319 72.8235C459.576 72.7739 459.84 72.8284 460.052 72.9748L459.488 73.7751ZM489.562 121.914L489.805 122.848L489.805 122.848L489.562 121.914ZM465.698 72.6682L465.046 73.4004C464.765 73.1543 464.656 72.7665 464.765 72.4051C464.874 72.0437 465.182 71.7736 465.555 71.7119L465.698 72.6682ZM484.401 70.298L484.334 69.3322C484.59 69.3102 484.842 69.3891 485.037 69.5517L484.401 70.298ZM516.785 133.698L517.3 132.866L517.3 132.866L516.785 133.698ZM489.716 69.3763L489.02 70.0675C488.748 69.7965 488.667 69.3877 488.813 69.0272C488.96 68.6666 489.306 68.4232 489.694 68.4076L489.716 69.3763ZM518.361 69.9436L518.449 68.9767C518.573 68.9857 518.694 69.0183 518.805 69.0729L518.361 69.9436ZM549.776 142.134L550.016 141.19L550.016 141.19L549.776 142.134ZM522.438 70.2838L521.965 71.1398C521.559 70.9231 521.368 70.4491 521.509 70.0068C521.649 69.5645 522.082 69.2765 522.544 69.3184L522.438 70.2838ZM556.887 76.9926L557.187 76.0649C557.312 76.1028 557.427 76.1655 557.527 76.2494L556.887 76.9926ZM572.446 155.404L572.875 154.527L572.875 154.527L572.446 155.404ZM567.397 80.626L566.75 81.3623C566.396 81.0561 566.319 80.5374 566.567 80.1323C566.816 79.7272 567.317 79.5528 567.757 79.7188L567.397 80.626ZM615.977 113.025L616.698 112.36C616.799 112.468 616.873 112.598 616.914 112.74L615.977 113.025ZM589.713 167.647L590.108 166.755L590.108 166.755L589.713 167.647ZM623.034 121.655L622.068 121.541C622.122 121.148 622.41 120.823 622.795 120.719C623.181 120.615 623.587 120.754 623.821 121.069L623.034 121.655ZM636.045 147.924L636.983 147.645C637.021 147.78 637.03 147.921 637.007 148.06L636.045 147.924ZM637.007 172.695L636.52 171.864C636.857 171.665 637.276 171.682 637.588 171.907C637.9 172.131 638.044 172.521 637.956 172.899L637.007 172.695ZM585.208 201.88L584.233 201.888C584.236 201.617 584.352 201.359 584.553 201.174C584.755 200.989 585.023 200.894 585.293 200.913L585.208 201.88ZM514.933 239.516L514.461 240.373C514.148 240.206 513.955 239.88 513.959 239.525C513.962 239.169 514.161 238.84 514.477 238.668L514.933 239.516ZM515.717 157.661L515.865 156.7L515.717 157.661ZM515.718 157.661L515.57 158.621L515.718 157.661ZM554.564 158.042L554.416 159.002C553.948 158.939 553.599 158.549 553.59 158.079L554.564 158.042ZM554.565 158.042L554.714 157.081C555.182 157.144 555.53 157.534 555.54 158.005L554.565 158.042ZM562.565 172.391L561.591 172.428C561.585 172.142 561.707 171.866 561.923 171.674C562.14 171.481 562.429 171.392 562.713 171.431L562.565 172.391ZM562.566 172.392L563.541 172.355C563.547 172.641 563.425 172.917 563.208 173.109C562.992 173.302 562.703 173.391 562.418 173.352L562.566 172.392ZM547.724 208.654C547.16 208.492 546.522 208.56 545.722 208.937C544.906 209.323 543.985 210.002 542.925 210.963C540.787 212.9 538.353 215.719 535.284 218.961C529.217 225.372 520.973 233.094 509.044 236.952L508.472 235.109C519.91 231.41 527.87 223.992 533.876 217.646C536.845 214.509 539.414 211.545 541.627 209.54C542.742 208.53 543.833 207.698 544.913 207.188C546.009 206.671 547.15 206.46 548.297 206.791L547.724 208.654ZM508.239 236.861C496.366 229.652 485.28 221.366 475.143 212.121L476.474 210.681C486.52 219.842 497.507 228.055 509.277 235.201L508.239 236.861ZM475.783 210.432C490.226 209.805 504.408 205.967 514.387 201.982C519.383 199.987 523.276 197.974 525.607 196.34C526.799 195.505 527.47 194.845 527.728 194.411C527.854 194.201 527.804 194.173 527.821 194.262C527.846 194.391 527.93 194.396 527.808 194.332L528.736 192.611C529.202 192.854 529.619 193.258 529.736 193.864C529.845 194.431 529.648 194.962 529.4 195.377C528.913 196.195 527.94 197.057 526.711 197.918C524.201 199.678 520.149 201.757 515.085 203.78C504.943 207.83 490.54 211.731 475.833 212.369L475.783 210.432ZM527.808 194.332C527.396 194.118 526.836 194.042 525.99 194.184C525.136 194.327 524.087 194.674 522.771 195.201C521.458 195.726 519.951 196.398 518.169 197.171C516.397 197.939 514.38 198.794 512.088 199.665C502.902 203.154 489.379 206.857 469.323 206.368L469.406 204.429C489.173 204.912 502.441 201.266 511.421 197.855C513.671 197 515.657 196.159 517.417 195.395C519.168 194.636 520.724 193.942 522.072 193.403C523.416 192.866 524.628 192.451 525.701 192.272C526.782 192.091 527.817 192.132 528.736 192.611L527.808 194.332ZM468.68 206.101C447.754 185.938 429.321 161.48 419.031 138.05L420.819 137.247C430.985 160.394 449.251 184.657 470.049 204.696L468.68 206.101ZM420.416 136.803C431.466 143.02 453.416 150.807 470.714 154.734C479.399 156.705 486.739 157.661 490.92 157.046C493.085 156.728 493.911 156.068 494.108 155.445C494.212 155.114 494.212 154.613 493.914 153.865C493.616 153.117 493.046 152.195 492.129 151.083L493.645 149.837C494.63 151.031 495.33 152.124 495.728 153.122C496.126 154.121 496.25 155.098 495.967 155.996C495.387 157.832 493.39 158.638 491.171 158.964C486.586 159.639 478.918 158.593 470.248 156.625C452.839 152.673 430.697 144.832 419.434 138.495L420.416 136.803ZM492.129 151.083C490.57 149.194 488.457 148.959 484.912 149.47C481.469 149.965 476.687 151.187 470.771 151.586C458.749 152.396 441.581 149.918 416.882 132.432L418.031 130.846C442.423 148.113 459.159 150.428 470.675 149.651C476.527 149.257 480.922 148.09 484.667 147.551C488.309 147.026 491.394 147.109 493.645 149.837L492.129 151.083ZM416.548 132.005C413.762 124.903 411.851 117.524 410.852 110.014L412.785 109.726C413.763 117.082 415.635 124.311 418.365 131.272L416.548 132.005ZM412.212 108.976C421.468 112.876 432.643 117.975 441.538 121.122C445.997 122.7 449.779 123.748 452.407 123.933C453.737 124.027 454.618 123.887 455.128 123.619C455.364 123.495 455.507 123.352 455.598 123.194C455.692 123.031 455.766 122.792 455.765 122.428L457.714 122.388C457.716 123.02 457.585 123.614 457.284 124.136C456.98 124.662 456.538 125.054 456.014 125.33C455.007 125.859 453.675 125.969 452.234 125.867C449.321 125.661 445.325 124.532 440.855 122.95C431.89 119.778 420.593 114.626 411.425 110.763L412.212 108.976ZM455.765 122.428C455.76 120.637 455.446 119.313 454.911 118.309C454.381 117.315 453.602 116.571 452.558 115.99C450.4 114.787 447.215 114.319 443.017 113.866C434.739 112.973 423.202 112.182 410.869 104.925L411.883 103.251C423.809 110.269 434.934 111.04 443.262 111.939C447.368 112.382 450.972 112.867 453.534 114.294C454.849 115.027 455.912 116.017 456.636 117.377C457.356 118.728 457.709 120.38 457.714 122.388L455.765 122.428ZM410.402 104.15C410.119 97.9745 411.015 91.8012 413.048 85.9202L414.89 86.521C412.938 92.1685 412.078 98.0962 412.35 104.027L410.402 104.15ZM413.654 85.309C428.492 80.0031 443.763 75.8278 459.319 72.8235L459.657 74.7266C444.2 77.7119 429.026 81.8606 414.284 87.1322L413.654 85.309ZM460.052 72.9748C474.274 82.7674 479.374 95.7359 482.177 105.804C482.876 108.313 483.436 110.657 483.951 112.702C484.472 114.764 484.944 116.508 485.475 117.889C486.013 119.29 486.563 120.182 487.16 120.661C487.685 121.083 488.326 121.251 489.32 120.979L489.805 122.848C488.295 123.261 486.99 123.039 485.919 122.178C484.92 121.375 484.222 120.093 483.653 118.61C483.075 117.109 482.579 115.261 482.06 113.205C481.537 111.132 480.988 108.832 480.298 106.353C477.547 96.4734 472.617 84.0041 458.924 74.5754L460.052 72.9748ZM489.32 120.979C490.487 120.66 491.234 120.026 491.692 119.137C492.171 118.209 492.374 116.92 492.248 115.267C491.996 111.955 490.45 107.543 487.925 102.628C482.89 92.826 474.153 81.387 465.046 73.4004L466.35 71.936C475.639 80.0827 484.523 91.7119 489.665 101.722C492.229 106.713 493.911 111.394 494.192 115.086C494.333 116.935 494.13 118.626 493.424 119.997C492.697 121.406 491.482 122.39 489.805 122.848L489.32 120.979ZM465.555 71.7119C471.981 70.6506 478.241 69.8572 484.334 69.3322L484.468 71.2638C478.428 71.7842 472.219 72.5709 465.841 73.6245L465.555 71.7119ZM485.037 69.5517C496.626 79.2562 501.916 93.632 505.741 106.251C507.668 112.608 509.207 118.463 510.992 123.205C512.788 127.977 514.735 131.326 517.3 132.866L516.271 134.531C513.098 132.626 510.968 128.703 509.165 123.913C507.351 119.094 505.769 113.094 503.874 106.841C500.053 94.2366 494.888 80.358 483.766 71.0443L485.037 69.5517ZM517.3 132.866C520.391 134.723 522.904 134.574 524.391 133.204C525.953 131.765 526.887 128.568 525.811 123.228C523.675 112.63 513.809 94.7541 489.02 70.0675L490.412 68.685C515.277 93.4478 525.473 111.653 527.722 122.815C528.839 128.355 528.046 132.457 525.701 134.616C523.281 136.845 519.707 136.595 516.27 134.531L517.3 132.866ZM489.694 68.4076C497.778 68.0838 511.024 68.4402 518.449 68.9767L518.273 70.9105C510.904 70.3781 497.734 70.0246 489.738 70.3449L489.694 68.4076ZM518.805 69.0729C541.456 80.2037 547.954 98.2554 549.523 113.612C550.305 121.267 549.866 128.27 549.609 133.379C549.48 135.959 549.4 137.997 549.526 139.431C549.589 140.151 549.698 140.633 549.83 140.929C549.893 141.07 549.948 141.137 549.977 141.165C550 141.187 550.009 141.189 550.016 141.19L549.537 143.078C548.777 142.9 548.315 142.344 548.046 141.742C547.785 141.158 547.653 140.426 547.584 139.633C547.445 138.041 547.535 135.859 547.662 133.317C547.92 128.18 548.348 121.326 547.584 113.842C546.059 98.922 539.807 81.5715 517.917 70.8143L518.805 69.0729ZM550.016 141.19C550.046 141.197 550.133 141.22 550.339 141.054C550.567 140.87 550.857 140.509 551.167 139.905C551.785 138.707 552.351 136.817 552.748 134.353C553.539 129.446 553.618 122.498 552.282 114.832C549.611 99.5012 541.313 81.4736 521.965 71.1398L522.911 69.4279C542.93 80.1199 551.465 98.7589 554.203 114.467C555.572 122.321 555.501 129.486 554.673 134.626C554.26 137.186 553.651 139.304 552.899 140.764C552.525 141.49 552.082 142.122 551.551 142.551C550.997 142.998 550.298 143.256 549.537 143.078L550.016 141.19ZM522.544 69.3184C534.318 70.3877 545.934 72.6497 557.187 76.0649L556.588 77.9202C545.461 74.5434 533.975 72.3066 522.332 71.2493L522.544 69.3184ZM557.527 76.2494C576.864 92.6111 579.185 111.814 577.491 127.225C576.646 134.903 574.803 141.667 573.597 146.615C572.988 149.118 572.557 151.097 572.463 152.533C572.415 153.25 572.46 153.751 572.561 154.08C572.654 154.381 572.772 154.478 572.875 154.527L572.017 156.282C571.316 155.953 570.905 155.357 570.696 154.678C570.495 154.026 570.464 153.257 570.518 152.441C570.625 150.809 571.1 148.666 571.703 146.191C572.923 141.184 574.726 134.57 575.553 127.048C577.201 112.058 574.961 93.5687 556.248 77.7357L557.527 76.2494ZM572.875 154.527C573.223 154.69 574.031 154.656 575.388 153.796C576.67 152.983 578.185 151.585 579.731 149.654C582.818 145.8 585.923 139.962 587.515 132.877C590.685 118.772 587.879 99.6455 566.75 81.3623L568.044 79.8896C589.688 98.6185 592.746 118.452 589.417 133.267C587.759 140.643 584.523 146.756 581.247 150.845C579.613 152.886 577.94 154.458 576.414 155.426C574.961 156.347 573.338 156.904 572.017 156.282L572.875 154.527ZM567.757 79.7188C586.591 86.8304 603.362 98.0144 616.698 112.36L615.256 113.69C602.124 99.5641 585.601 88.5431 567.037 81.5331L567.757 79.7188ZM616.914 112.74C621.477 128.411 611.532 141.191 602.381 150.446C600.079 152.774 597.801 154.905 595.793 156.811C593.772 158.729 592.04 160.406 590.781 161.861C590.153 162.587 589.663 163.236 589.319 163.811C588.971 164.392 588.805 164.846 588.762 165.194C588.724 165.511 588.786 165.745 588.941 165.959C589.115 166.197 589.459 166.479 590.108 166.755L589.317 168.54C588.483 168.187 587.803 167.728 587.356 167.115C586.891 166.477 586.736 165.749 586.827 164.995C586.915 164.272 587.226 163.547 587.648 162.842C588.074 162.13 588.644 161.385 589.313 160.612C590.647 159.07 592.45 157.328 594.46 155.42C596.483 153.5 598.73 151.398 601.003 149.1C610.148 139.85 619.269 127.834 615.041 113.31L616.914 112.74ZM590.108 166.755C593.283 168.101 596.636 167.327 600.066 164.887C603.511 162.435 606.904 158.378 609.979 153.473C616.125 143.666 620.808 130.776 622.068 121.541L624 121.768C622.698 131.303 617.908 144.456 611.627 154.477C608.488 159.486 604.93 163.789 601.181 166.457C597.415 169.136 593.329 170.241 589.317 168.54L590.108 166.755ZM623.821 121.069C629.823 129.142 634.278 138.135 636.983 147.645L635.107 148.204C632.466 138.919 628.115 130.133 622.247 122.24L623.821 121.069ZM637.007 148.06C636.032 154.139 633.699 158.446 630.684 161.671C627.685 164.88 624.056 166.969 620.579 168.683C617.035 170.43 613.787 171.732 611.204 173.446C608.689 175.114 607.008 177.053 606.562 179.95L604.635 179.69C605.195 176.057 607.351 173.691 610.142 171.839C612.866 170.032 616.395 168.597 619.739 166.949C623.148 165.269 626.517 163.307 629.267 160.365C632.001 157.44 634.167 153.499 635.083 147.789L637.007 148.06ZM606.562 179.95C606.595 179.733 606.487 179.564 606.421 179.504C606.393 179.478 606.432 179.523 606.636 179.582C607.031 179.697 607.71 179.774 608.678 179.774C610.586 179.775 613.335 179.481 616.501 178.885C622.84 177.691 630.665 175.322 636.52 171.864L637.493 173.526C631.365 177.145 623.295 179.573 616.831 180.79C613.596 181.399 610.716 181.714 608.642 181.713C607.619 181.713 606.72 181.636 606.058 181.444C605.733 181.349 605.374 181.202 605.092 180.945C604.772 180.654 604.554 180.215 604.635 179.69L606.562 179.95ZM637.956 172.899C635.741 182.367 630.275 190.427 621.443 195.83C612.628 201.222 600.537 203.922 585.122 202.847L585.293 200.913C600.426 201.969 612.076 199.302 620.444 194.183C628.796 189.074 633.956 181.476 636.058 172.492L637.956 172.899ZM586.182 201.873C585.897 228.837 577.506 243.704 564.06 249.094C550.753 254.428 532.983 250.241 514.461 240.373L515.405 238.66C533.821 248.471 550.905 252.289 563.359 247.297C575.674 242.361 583.951 228.57 584.233 201.888L586.182 201.873ZM514.477 238.668C524.891 232.994 534.658 225.553 541.024 219.326C544.219 216.2 546.495 213.439 547.589 211.402C548.147 210.363 548.319 209.654 548.285 209.237C548.27 209.054 548.217 208.956 548.162 208.892C548.103 208.823 547.982 208.728 547.724 208.654L548.297 206.791C548.825 206.943 549.298 207.205 549.65 207.613C550.007 208.025 550.184 208.522 550.227 209.043C550.309 210.031 549.914 211.157 549.305 212.291C548.066 214.599 545.614 217.529 542.378 220.696C535.879 227.054 525.962 234.604 515.39 240.364L514.477 238.668ZM515.569 158.621C514.297 158.45 513.156 158.539 512.352 158.782C511.46 159.051 511.341 159.376 511.336 159.405L509.41 159.145C509.6 157.911 510.775 157.242 511.817 156.927C512.947 156.586 514.38 156.499 515.865 156.7L515.569 158.621ZM511.336 159.405C511.332 159.435 511.348 159.778 512.122 160.272C512.82 160.718 513.887 161.105 515.159 161.277L514.863 163.198C513.378 162.998 512.03 162.536 511.048 161.909C510.144 161.332 509.22 160.38 509.41 159.145L511.336 159.405ZM515.159 161.277C516.431 161.449 517.572 161.359 518.376 161.116C519.268 160.847 519.387 160.522 519.391 160.492L521.318 160.753C521.128 161.987 519.953 162.656 518.912 162.971C517.781 163.312 516.348 163.399 514.863 163.198L515.159 161.277ZM519.391 160.492C519.396 160.463 519.38 160.12 518.606 159.626C517.909 159.18 516.841 158.793 515.57 158.621L515.866 156.7C517.35 156.9 518.699 157.362 519.68 157.989C520.584 158.566 521.508 159.518 521.318 160.753L519.391 160.492ZM515.57 158.621L515.569 158.621L515.865 156.7L515.866 156.7L515.57 158.621ZM553.59 158.079C553.567 156.963 553.205 155.993 552.679 155.325C552.152 154.656 551.51 154.339 550.895 154.35L550.895 152.412C552.254 152.387 553.42 153.095 554.222 154.113C555.024 155.132 555.509 156.51 555.539 158.005L553.59 158.079ZM550.895 154.35C550.285 154.362 549.671 154.696 549.182 155.37C548.692 156.045 548.368 157.02 548.391 158.135L546.442 158.209C546.412 156.714 546.841 155.312 547.609 154.253C548.379 153.193 549.531 152.437 550.895 152.412L550.895 154.35ZM548.391 158.135C548.413 159.251 548.776 160.221 549.302 160.889C549.829 161.558 550.47 161.875 551.085 161.864L551.086 163.802C549.727 163.827 548.56 163.119 547.759 162.101C546.957 161.082 546.472 159.704 546.442 158.209L548.391 158.135ZM551.085 161.864C551.695 161.853 552.31 161.518 552.799 160.844C553.29 160.169 553.614 159.194 553.591 158.079L555.54 158.005C555.57 159.5 555.141 160.903 554.372 161.961C553.602 163.021 552.45 163.777 551.086 163.802L551.085 161.864ZM554.417 159.002L554.416 159.002L554.712 157.081L554.714 157.081L554.417 159.002ZM563.54 172.355C563.563 173.512 563.871 174.512 564.302 175.189C564.746 175.885 565.212 176.101 565.54 176.095L565.541 178.034C564.278 178.057 563.284 177.242 562.65 176.247C562.004 175.232 561.62 173.881 561.591 172.428L563.54 172.355ZM565.54 176.095C565.859 176.089 566.301 175.867 566.708 175.168C567.106 174.485 567.374 173.481 567.351 172.323L569.3 172.249C569.329 173.701 569 175.071 568.39 176.118C567.79 177.148 566.813 178.01 565.541 178.034L565.54 176.095ZM567.351 172.323C567.328 171.165 567.019 170.166 566.588 169.489C566.145 168.792 565.678 168.576 565.35 168.582L565.349 166.643C566.612 166.62 567.607 167.435 568.24 168.43C568.886 169.445 569.27 170.797 569.3 172.249L567.351 172.323ZM565.35 168.582C565.032 168.588 564.59 168.809 564.183 169.509C563.785 170.192 563.517 171.197 563.541 172.355L561.592 172.429C561.563 170.978 561.891 169.607 562.501 168.56C563.1 167.53 564.077 166.667 565.349 166.643L565.35 168.582ZM562.418 173.352L562.417 173.352L562.713 171.431L562.714 171.431L562.418 173.352Z" fill="black"/>
<path d="M496.615 183.323C493.997 184.754 491.014 185.493 487.982 185.463" stroke="black" stroke-width="1.94405" stroke-linecap="round" stroke-linejoin="round"/>
<path d="M458.926 88.8878C461.357 90.8592 463.226 93.3648 464.366 96.1795" stroke="black" stroke-width="1.94405" stroke-linecap="round" stroke-linejoin="round"/>
<path d="M559.79 107.812C560.712 110.43 560.859 113.233 560.217 115.924" stroke="black" stroke-width="1.94405" stroke-linecap="round" stroke-linejoin="round"/>
<path d="M433.61 288.682C438.395 285.76 470.898 285.189 475.527 290.884C475.091 290.949 431.237 291.098 433.61 288.682Z" fill="#ADFF02" fill-opacity="0.5" stroke="black" stroke-width="1.10862" stroke-linecap="round" stroke-linejoin="round"/>
<path d="M441.196 298.029C440.707 295.581 480.331 295.595 490.09 298.565C490.636 298.72 491.163 298.928 491.663 299.186C497.933 302.639 496.369 302.512 496.369 302.512C496.369 302.512 441.568 299.893 441.196 298.029Z" fill="#ADFF02" fill-opacity="0.5" stroke="black" stroke-width="1.10862" stroke-linecap="round" stroke-linejoin="round"/>
<path d="M454.667 309.574C452.655 307.939 498.456 306.988 508.214 309.957C508.76 310.112 509.288 310.321 509.787 310.578C516.057 314.031 512.372 312.06 512.372 312.06C512.372 312.06 457.665 312.011 454.667 309.574Z" fill="#ADFF02" fill-opacity="0.5" stroke="black" stroke-width="1.10862" stroke-linecap="round" stroke-linejoin="round"/>
<path d="M464.373 325.401C462.361 323.766 519.333 314.413 523.182 317.853C523.676 318.294 524.363 318.258 524.755 318.474C531.025 321.927 527.339 319.955 527.339 319.955C527.339 319.955 467.37 327.838 464.373 325.401Z" fill="#ADFF02" fill-opacity="0.5" stroke="black" stroke-width="1.10862" stroke-linecap="round" stroke-linejoin="round"/>
<path d="M477.971 336.34C478.242 333.862 535.65 322.256 539.499 325.695C539.993 326.136 540.68 326.1 541.072 326.316C547.342 329.769 543.656 327.797 543.656 327.797C543.656 327.797 477.58 339.921 477.971 336.34Z" fill="#ADFF02" fill-opacity="0.5" stroke="black" stroke-width="1.10862" stroke-linecap="round" stroke-linejoin="round"/>
<path d="M494.893 345.981C495.163 343.504 552.572 331.898 556.421 335.336C556.915 335.778 557.602 335.742 557.994 335.957C564.263 339.411 560.578 337.439 560.578 337.439C560.578 337.439 494.502 349.562 494.893 345.981Z" fill="#ADFF02" fill-opacity="0.5" stroke="black" stroke-width="1.10862" stroke-linecap="round" stroke-linejoin="round"/>
<path d="M510.817 359.48C511.088 357.002 558.392 340.466 572.827 343.641C573.382 343.77 573.913 343.98 574.4 344.262C580.67 347.715 575.26 344.736 575.26 344.736C575.26 344.736 510.426 363.061 510.817 359.48Z" fill="#ADFF02" fill-opacity="0.5" stroke="black" stroke-width="1.10862" stroke-linecap="round" stroke-linejoin="round"/>
<path d="M452.683 252.274C450.163 253.088 469.784 285.245 477.376 291.697C477.79 292.064 478.245 292.389 478.732 292.667C485.047 296.048 484.154 294.841 484.154 294.841C484.154 294.841 454.601 251.654 452.683 252.274Z" fill="#ADFF02" fill-opacity="0.5" stroke="black" stroke-width="1.10862" stroke-linecap="round" stroke-linejoin="round"/>
<path d="M468.519 258.974C466.002 258.15 487.781 295.798 495.373 302.251C495.787 302.617 496.242 302.942 496.729 303.22C503.043 306.601 499.385 304.585 499.385 304.585C499.385 304.585 472.269 260.201 468.519 258.974Z" fill="#ADFF02" fill-opacity="0.5" stroke="black" stroke-width="1.10862" stroke-linecap="round" stroke-linejoin="round"/>
<path d="M491.203 260.08C488.687 259.257 508.178 310.13 513.282 311.552C513.938 311.735 514.243 312.31 514.638 312.521C520.953 315.902 517.295 313.886 517.295 313.886C517.295 313.886 494.954 261.307 491.203 260.08Z" fill="#ADFF02" fill-opacity="0.5" stroke="black" stroke-width="1.10862" stroke-linecap="round" stroke-linejoin="round"/>
<path d="M507.789 265.144C505.618 266.59 523.23 318.933 528.333 320.355C528.989 320.538 529.294 321.113 529.689 321.324C536.004 324.705 532.346 322.689 532.346 322.689C532.346 322.689 510.927 263.055 507.789 265.144Z" fill="#ADFF02" fill-opacity="0.5" stroke="black" stroke-width="1.10862" stroke-linecap="round" stroke-linejoin="round"/>
<path d="M524.865 273.686C522.694 275.132 540.306 327.475 545.409 328.897C546.065 329.08 546.37 329.655 546.765 329.867C553.08 333.247 549.422 331.232 549.422 331.232C549.422 331.232 528.003 271.597 524.865 273.686Z" fill="#ADFF02" fill-opacity="0.5" stroke="black" stroke-width="1.10862" stroke-linecap="round" stroke-linejoin="round"/>
<path d="M545.438 278.473C543.267 279.918 551.292 326.499 561.388 336.645C561.784 337.032 562.241 337.359 562.744 337.615C569.059 340.996 563.611 338.078 563.611 338.078C563.611 338.078 548.576 276.383 545.438 278.473Z" fill="#ADFF02" fill-opacity="0.5" stroke="black" stroke-width="1.10862" stroke-linecap="round" stroke-linejoin="round"/>
<path d="M560.721 286.702C558.55 288.148 566.574 334.729 576.671 344.875C577.066 345.262 577.524 345.589 578.027 345.844C584.341 349.225 578.894 346.308 578.894 346.308C578.894 346.308 563.858 284.613 560.721 286.702Z" fill="#ADFF02" fill-opacity="0.5" stroke="black" stroke-width="1.10862" stroke-linecap="round" stroke-linejoin="round"/>
<path d="M593.655 351.149C551.523 334.016 471.382 287.781 470.578 287.316L469.378 289.128C470.184 289.594 550.463 335.908 592.744 353.102L593.655 351.149Z" fill="#ADFF02" fill-opacity="0.01" stroke="black" stroke-width="1.10862" stroke-linecap="round" stroke-linejoin="round"/>
<path d="M439.361 265.347C441.31 270.368 467.367 292.184 474.728 290.226C474.421 289.929 439.015 262.083 439.361 265.347Z" fill="#ADFF02" fill-opacity="0.5" stroke="black" stroke-width="1.10862" stroke-linecap="round" stroke-linejoin="round"/>
<path d="M567.498 314.451L568.796 316.396" stroke="black" stroke-width="1.10862" stroke-linecap="round" stroke-linejoin="round"/>
<path d="M517.728 341.658L521.15 341.936" stroke="black" stroke-width="1.10862" stroke-linecap="round" stroke-linejoin="round"/>
<path d="M530.95 289.384L534.36 295.175" stroke="black" stroke-width="1.10862" stroke-linecap="round" stroke-linejoin="round"/>
<path d="M490.054 321.474L491.52 321.593" stroke="black" stroke-width="1.10862" stroke-linecap="round" stroke-linejoin="round"/>
<path d="M500.025 282.742L500.96 285.369" stroke="black" stroke-width="1.10862" stroke-linecap="round" stroke-linejoin="round"/>
<path d="M463.346 298.838C464.648 299.021 465.969 299.051 467.278 298.927" stroke="black" stroke-width="1.10862" stroke-linecap="round" stroke-linejoin="round"/>
<path d="M466.833 274.516L467.663 276.193" stroke="black" stroke-width="1.10862" stroke-linecap="round" stroke-linejoin="round"/>
<path d="M447.132 287.848L448.814 288.241" stroke="black" stroke-width="1.10862" stroke-linecap="round" stroke-linejoin="round"/>
<path d="M179.688 64.0541C176.387 105.851 130.724 123.322 130.724 123.322C138.699 86.3318 163.102 77.1912 179.688 64.0541Z" fill="#ADFF02" fill-opacity="0.5"/>
<mask id="mask2_778_553" style="mask-type:luminance" maskUnits="userSpaceOnUse" x="130" y="64" width="50" height="60">
<path fill-rule="evenodd" clip-rule="evenodd" d="M179.688 64.0541C176.387 105.851 130.724 123.322 130.724 123.322C138.699 86.3318 163.102 77.1912 179.688 64.0541Z" fill="white"/>
</mask>
<g mask="url(#mask2_778_553)">
<path d="M177.316 54.8007L179.687 64.0538C179.687 64.0538 138.759 104.526 130.723 123.321C122.687 142.117 134.563 82.5573 134.563 82.5573L146.539 64.4336" fill="#ADFF02" fill-opacity="0.01"/>
</g>
<path fill-rule="evenodd" clip-rule="evenodd" d="M179.688 64.0541C176.387 105.851 130.724 123.322 130.724 123.322C138.699 86.3318 163.102 77.1912 179.688 64.0541Z" stroke="black" stroke-width="1.91254" stroke-linecap="round" stroke-linejoin="round"/>
<path d="M121.676 74.4053C123.009 124.536 88.2548 133.174 88.2548 133.174C96.2301 96.1844 105.089 87.5418 121.676 74.4053Z" fill="#ADFF02" fill-opacity="0.5"/>
<mask id="mask3_778_553" style="mask-type:luminance" maskUnits="userSpaceOnUse" x="88" y="74" width="34" height="60">
<path fill-rule="evenodd" clip-rule="evenodd" d="M121.676 74.4053C123.009 124.536 88.2548 133.174 88.2548 133.174C96.2301 96.1844 105.089 87.5418 121.676 74.4053Z" fill="white"/>
</mask>
<g mask="url(#mask3_778_553)">
<path d="M124.85 63.2723L121.675 74.4057C121.675 74.4057 107.922 115.706 88.2547 133.174C68.5872 150.642 93.6314 91.0311 93.6314 91.0311L110.908 68.8561" fill="#ADFF02" fill-opacity="0.01"/>
</g>
<path fill-rule="evenodd" clip-rule="evenodd" d="M121.676 74.4053C123.009 124.536 88.2548 133.174 88.2548 133.174C96.2301 96.1844 105.089 87.5418 121.676 74.4053Z" stroke="black" stroke-width="1.91254" stroke-linecap="round" stroke-linejoin="round"/>
<path d="M83.7827 82.4561C80.5789 132.066 56.6919 146.735 56.6919 146.735C48.5218 110.065 67.1973 95.5931 83.7827 82.4561Z" fill="#ADFF02" fill-opacity="0.5"/>
<mask id="mask4_778_553" style="mask-type:luminance" maskUnits="userSpaceOnUse" x="54" y="82" width="30" height="65">
<path fill-rule="evenodd" clip-rule="evenodd" d="M83.7827 82.4561C80.5789 132.066 56.6919 146.735 56.6919 146.735C48.5218 110.065 67.1973 95.5931 83.7827 82.4561Z" fill="white"/>
</mask>
<g mask="url(#mask4_778_553)">
<path d="M85.818 74.5781L83.7828 82.4565C83.7828 82.4565 57.4425 124.795 56.692 146.735C55.9415 168.675 43.8379 99.9699 43.8379 99.9699L75.801 68.811" fill="#ADFF02" fill-opacity="0.01"/>
</g>
<path fill-rule="evenodd" clip-rule="evenodd" d="M83.7827 82.4561C80.5789 132.066 56.6919 146.735 56.6919 146.735C48.5218 110.065 67.1973 95.5931 83.7827 82.4561Z" stroke="black" stroke-width="1.91254" stroke-linecap="round" stroke-linejoin="round"/>
<path d="M26.2658 97.3C42.7186 141.68 22.6429 166.291 22.6429 166.291C2.32542 134.045 14.0523 109.61 26.2658 97.3Z" fill="#ADFF02" fill-opacity="0.5"/>
<mask id="mask5_778_553" style="mask-type:luminance" maskUnits="userSpaceOnUse" x="11" y="97" width="22" height="70">
<path fill-rule="evenodd" clip-rule="evenodd" d="M26.2653 97.2995C42.7181 141.68 22.6425 166.291 22.6425 166.291C2.32498 134.045 14.0519 109.61 26.2653 97.2995Z" fill="white"/>
</mask>
<g mask="url(#mask5_778_553)">
<path d="M33.557 79.6617L26.2645 97.299C26.2645 97.299 14.6993 136.761 22.6416 166.29C30.584 195.819 -5.23184 142.025 -5.23184 142.025L-5.99727 112.655L12.3946 83.0129" fill="#ADFF02" fill-opacity="0.01"/>
</g>
<path fill-rule="evenodd" clip-rule="evenodd" d="M26.2658 97.3C42.7186 141.68 22.6429 166.291 22.6429 166.291C2.32542 134.045 14.0523 109.61 26.2658 97.3Z" stroke="black" stroke-width="1.91254" stroke-linecap="round" stroke-linejoin="round"/>
<path d="M173.796 175.403C149.448 167.802 132.18 147.48 129.751 123.569C164.358 142.804 166.078 156.414 173.796 175.403Z" fill="#ADFF02" fill-opacity="0.5"/>
<mask id="mask6_778_553" style="mask-type:luminance" maskUnits="userSpaceOnUse" x="129" y="123" width="45" height="53">
<path fill-rule="evenodd" clip-rule="evenodd" d="M173.796 175.403C149.448 167.802 132.18 147.48 129.751 123.569C164.358 142.804 166.078 156.414 173.796 175.403Z" fill="white"/>
</mask>
<g mask="url(#mask6_778_553)">
<path d="M179.231 206.483L173.796 175.405C173.796 175.405 138.994 146.326 130.723 123.322C122.452 100.318 117.022 129.557 117.022 129.557L143.432 178.319L173.123 199.156" fill="#ADFF02" fill-opacity="0.01"/>
</g>
<path fill-rule="evenodd" clip-rule="evenodd" d="M173.796 175.403C149.448 167.802 132.18 147.48 129.751 123.569C164.358 142.804 166.078 156.414 173.796 175.403Z" stroke="black" stroke-width="1.91254" stroke-linecap="round" stroke-linejoin="round"/>
<path d="M136.331 181.29C111.241 176.232 91.7024 157.8 86.4983 134.283C123.147 149.858 126.443 163.207 136.331 181.29Z" fill="#ADFF02" fill-opacity="0.5"/>
<mask id="mask7_778_553" style="mask-type:luminance" maskUnits="userSpaceOnUse" x="86" y="134" width="51" height="48">
<path fill-rule="evenodd" clip-rule="evenodd" d="M136.331 181.29C111.241 176.232 91.7024 157.8 86.4983 134.283C123.147 149.858 126.443 163.207 136.331 181.29Z" fill="white"/>
</mask>
<g mask="url(#mask7_778_553)">
<path d="M139.834 196.22L136.331 181.291C136.331 181.291 85.8393 141.496 86.3739 131.939L117.475 141.024C117.475 141.024 133.171 156.535 134.678 158.585C136.186 160.636 148.256 177.419 148.256 177.419" fill="#ADFF02" fill-opacity="0.01"/>
</g>
<path fill-rule="evenodd" clip-rule="evenodd" d="M136.331 181.29C111.241 176.232 91.7024 157.8 86.4983 134.283C123.147 149.858 126.443 163.207 136.331 181.29Z" stroke="black" stroke-width="1.91254" stroke-linecap="round" stroke-linejoin="round"/>
<path d="M102.668 188.589C59.2961 179.425 55.6379 146.86 55.6379 146.86C92.2862 162.435 92.781 170.507 102.668 188.589Z" fill="#ADFF02" fill-opacity="0.5"/>
<mask id="mask8_778_553" style="mask-type:luminance" maskUnits="userSpaceOnUse" x="55" y="146" width="48" height="43">
<path fill-rule="evenodd" clip-rule="evenodd" d="M102.668 188.589C59.2961 179.425 55.6379 146.86 55.6379 146.86C92.2862 162.435 92.781 170.507 102.668 188.589Z" fill="white"/>
</mask>
<g mask="url(#mask8_778_553)">
<path d="M108.269 204.767L102.667 188.589C102.667 188.589 68.9243 167.395 55.6363 146.859C42.3483 126.323 50.1912 152.348 50.1912 152.348L86.7796 199.459" fill="#ADFF02" fill-opacity="0.01"/>
</g>
<path fill-rule="evenodd" clip-rule="evenodd" d="M102.668 188.589C59.2961 179.425 55.6379 146.86 55.6379 146.86C92.2862 162.435 92.781 170.507 102.668 188.589Z" stroke="black" stroke-width="1.91254" stroke-linecap="round" stroke-linejoin="round"/>
<path d="M74.4915 197.296C30.0927 194.886 18.0954 167.166 18.0954 167.166C48.1406 167.69 61.5854 180.971 74.4915 197.296Z" fill="#ADFF02" fill-opacity="0.5"/>
<mask id="mask9_778_553" style="mask-type:luminance" maskUnits="userSpaceOnUse" x="18" y="167" width="57" height="31">
<path fill-rule="evenodd" clip-rule="evenodd" d="M74.4925 197.297C30.0937 194.887 18.0963 167.167 18.0963 167.167C48.1416 167.691 61.5864 180.972 74.4925 197.297Z" fill="white"/>
</mask>
<g mask="url(#mask9_778_553)">
<path d="M84.8714 218.21L74.4931 197.298C74.4931 197.298 33.3796 180.762 18.0969 167.168C2.81423 153.574 24.4318 191.448 24.4318 191.448L55.0794 209.761" fill="#ADFF02" fill-opacity="0.01"/>
</g>
<path fill-rule="evenodd" clip-rule="evenodd" d="M74.4915 197.296C30.0927 194.886 18.0954 167.166 18.0954 167.166C48.1406 167.69 61.5854 180.971 74.4915 197.296Z" stroke="black" stroke-width="1.91254" stroke-linecap="round" stroke-linejoin="round"/>
<path d="M150.152 123.559C142.12 122.798 134.023 122.863 126.005 123.752L122.999 124.099C121.998 124.213 120.993 124.318 120.003 124.505L114.039 125.506C110.101 126.339 106.144 127.129 102.269 128.205C94.49 130.263 86.8475 132.749 79.3819 135.651C71.9082 138.525 64.5476 141.67 57.3682 145.141C42.9329 151.961 29.0409 159.745 15.8001 168.431C9.20783 172.802 2.73775 177.334 -3.52164 182.11C-6.65819 184.489 -9.7443 186.926 -12.8067 189.385C-15.8222 191.898 -18.8475 194.396 -21.7237 197.051C-21.7237 197.051 -21.4151 202.936 -17.0004 198.262C-6.81615 187.738 4.7958 178.506 17.5398 170.802C30.8729 162.449 44.353 154.273 58.5036 147.182C65.5598 143.609 72.7967 140.36 80.1519 137.376C87.4968 134.366 95.0257 131.765 102.699 129.587C106.513 128.427 110.411 127.552 114.297 126.631L120.185 125.498C121.163 125.289 122.155 125.162 123.146 125.025L126.12 124.609C134.066 123.535 142.114 123.279 150.12 123.845L150.152 123.559Z" fill="#ADFF02" fill-opacity="0.5" stroke="black" stroke-width="1.91254" stroke-linecap="round" stroke-linejoin="round"/>
<path d="M149.428 123.817C168.176 108.115 194.948 103.999 218.079 113.263C176.936 135.807 164.952 132.189 149.428 123.817Z" fill="#ADFF02" fill-opacity="0.5"/>
<mask id="mask10_778_553" style="mask-type:luminance" maskUnits="userSpaceOnUse" x="149" y="108" width="70" height="23">
<path fill-rule="evenodd" clip-rule="evenodd" d="M149.428 123.817C168.176 108.115 194.948 103.999 218.079 113.263C176.936 135.807 164.952 132.189 149.428 123.817Z" fill="white"/>
</mask>
<g mask="url(#mask10_778_553)">
<path d="M246.014 137.582L218.079 113.263C218.079 113.263 175.604 123.122 149.428 123.817C123.253 124.512 184.512 154.36 184.512 154.36L217.206 144.411" fill="#ADFF02" fill-opacity="0.01"/>
</g>
<path fill-rule="evenodd" clip-rule="evenodd" d="M149.428 123.817C168.176 108.115 194.948 103.999 218.079 113.263C176.936 135.807 164.952 132.189 149.428 123.817Z" stroke="black" stroke-width="1.91254" stroke-linecap="round" stroke-linejoin="round"/>
<path d="M176.735 117.077L175.354 118.47" stroke="black" stroke-width="1.91254" stroke-linecap="round" stroke-linejoin="round"/>
<path d="M105.427 105.644L104.524 107.46" stroke="black" stroke-width="1.91254" stroke-linecap="round" stroke-linejoin="round"/>
<path d="M110.023 160.616L104.075 156.4" stroke="black" stroke-width="1.91254" stroke-linecap="round" stroke-linejoin="round"/>
<path d="M155.16 153.225L153.676 151.933" stroke="black" stroke-width="1.91254" stroke-linecap="round" stroke-linejoin="round"/>
<path d="M65.2491 115.608L64.7885 116.073" stroke="black" stroke-width="1.91254" stroke-linecap="round" stroke-linejoin="round"/>
<path d="M80.2129 169.293L79.2236 168.432" stroke="black" stroke-width="1.91254" stroke-linecap="round" stroke-linejoin="round"/>
<path d="M46.2969 183.073L41.4892 182.332" stroke="black" stroke-width="1.91254" stroke-linecap="round" stroke-linejoin="round"/>
</g>
<defs>
<clipPath id="clip0_778_553">
<rect width="569" height="462" fill="white"/>
</clipPath>
</defs>
</svg>
